<svg xmlns="http://www.w3.org/2000/svg" xmlns:xlink="http://www.w3.org/1999/xlink" width="310" zoomAndPan="magnify" viewBox="0 0 232.5 141.749996" height="189" preserveAspectRatio="xMidYMid meet" version="1.0"><defs><g/><clipPath id="162f004bdc"><path d="M 0 0.0273438 L 232 0.0273438 L 232 141.472656 L 0 141.472656 Z M 0 0.0273438 " clip-rule="nonzero"/></clipPath><clipPath id="32fd6ef84c"><path d="M 0 0.0273438 L 232 0.0273438 L 232 141.472656 L 0 141.472656 Z M 0 0.0273438 " clip-rule="nonzero"/></clipPath><clipPath id="cdcafc0d5d"><path d="M 0 0.0273438 L 125 0.0273438 L 125 116 L 0 116 Z M 0 0.0273438 " clip-rule="nonzero"/></clipPath><clipPath id="a9251b97ce"><path d="M 0 0.0273438 L 134 0.0273438 L 134 124 L 0 124 Z M 0 0.0273438 " clip-rule="nonzero"/></clipPath><clipPath id="13c9079d9b"><path d="M 0 0.0273438 L 150 0.0273438 L 150 136 L 0 136 Z M 0 0.0273438 " clip-rule="nonzero"/></clipPath><clipPath id="6c78f88023"><path d="M 10 0.0273438 L 112 0.0273438 L 112 98 L 10 98 Z M 10 0.0273438 " clip-rule="nonzero"/></clipPath><clipPath id="ab80112248"><path d="M 136 0.0273438 L 229 0.0273438 L 229 131 L 136 131 Z M 136 0.0273438 " clip-rule="nonzero"/></clipPath><clipPath id="bfd7a6b8ef"><path d="M 50 104 L 140 104 L 140 141.472656 L 50 141.472656 Z M 50 104 " clip-rule="nonzero"/></clipPath><clipPath id="6b8fbf92a1"><path d="M 167 0.0273438 L 232 0.0273438 L 232 97 L 167 97 Z M 167 0.0273438 " clip-rule="nonzero"/></clipPath><clipPath id="b6f40d8d14"><path d="M 138 115 L 232 115 L 232 141.472656 L 138 141.472656 Z M 138 115 " clip-rule="nonzero"/></clipPath><clipPath id="1685091856"><path d="M 61 112 L 134 112 L 134 141.472656 L 61 141.472656 Z M 61 112 " clip-rule="nonzero"/></clipPath><clipPath id="d93578fbb3"><path d="M 71 118 L 127 118 L 127 141.472656 L 71 141.472656 Z M 71 118 " clip-rule="nonzero"/></clipPath><clipPath id="b9f39b7103"><path d="M 54 0.0273438 L 118 0.0273438 L 118 28 L 54 28 Z M 54 0.0273438 " clip-rule="nonzero"/></clipPath><clipPath id="5c3a15b60b"><path d="M 80 126 L 120 126 L 120 141.472656 L 80 141.472656 Z M 80 126 " clip-rule="nonzero"/></clipPath><clipPath id="b3ce03db47"><path d="M 144 132 L 198 132 L 198 141.472656 L 144 141.472656 Z M 144 132 " clip-rule="nonzero"/></clipPath><clipPath id="c23efc9582"><path d="M 59 0.0273438 L 109 0.0273438 L 109 20 L 59 20 Z M 59 0.0273438 " clip-rule="nonzero"/></clipPath><clipPath id="176551e14d"><path d="M 189 0.0273438 L 232 0.0273438 L 232 43 L 189 43 Z M 189 0.0273438 " clip-rule="nonzero"/></clipPath><clipPath id="7ca25a0eed"><path d="M 0 129 L 41 129 L 41 141.472656 L 0 141.472656 Z M 0 129 " clip-rule="nonzero"/></clipPath><clipPath id="5f4416be5d"><path d="M 150 138 L 188 138 L 188 141.472656 L 150 141.472656 Z M 150 138 " clip-rule="nonzero"/></clipPath><clipPath id="13073e4eb2"><path d="M 91 135 L 112 135 L 112 141.472656 L 91 141.472656 Z M 91 135 " clip-rule="nonzero"/></clipPath><clipPath id="66bee5f1e6"><path d="M 2 138 L 30 138 L 30 141.472656 L 2 141.472656 Z M 2 138 " clip-rule="nonzero"/></clipPath><clipPath id="54a9aede60"><path d="M 204 0.0273438 L 232 0.0273438 L 232 34 L 204 34 Z M 204 0.0273438 " clip-rule="nonzero"/></clipPath><clipPath id="fd24fb8435"><path d="M 64 0.0273438 L 98 0.0273438 L 98 10 L 64 10 Z M 64 0.0273438 " clip-rule="nonzero"/></clipPath><clipPath id="bc237b6ede"><path d="M 213 0.0273438 L 232 0.0273438 L 232 27 L 213 27 Z M 213 0.0273438 " clip-rule="nonzero"/></clipPath><clipPath id="793c631234"><path d="M 209 129 L 232 129 L 232 141.472656 L 209 141.472656 Z M 209 129 " clip-rule="nonzero"/></clipPath><clipPath id="ff10c2fb7e"><path d="M 0 81 L 8 81 L 8 104 L 0 104 Z M 0 81 " clip-rule="nonzero"/></clipPath><clipPath id="eca8a91fbc"><path d="M 228 61 L 232 61 L 232 86 L 228 86 Z M 228 61 " clip-rule="nonzero"/></clipPath><clipPath id="f2b11034e0"><path d="M 220 0.0273438 L 232 0.0273438 L 232 20 L 220 20 Z M 220 0.0273438 " clip-rule="nonzero"/></clipPath><clipPath id="b5d4fec413"><path d="M 0 21 L 3 21 L 3 42 L 0 42 Z M 0 21 " clip-rule="nonzero"/></clipPath><clipPath id="868e89edad"><path d="M 221 139 L 232 139 L 232 141.472656 L 221 141.472656 Z M 221 139 " clip-rule="nonzero"/></clipPath><clipPath id="40ad93f28a"><path d="M 228 0.0273438 L 232 0.0273438 L 232 8 L 228 8 Z M 228 0.0273438 " clip-rule="nonzero"/></clipPath><clipPath id="a46559bf09"><rect x="0" width="91" y="0" height="28"/></clipPath><clipPath id="cd42786d47"><path d="M 137 4 L 145.953125 4 L 145.953125 15 L 137 15 Z M 137 4 " clip-rule="nonzero"/></clipPath><clipPath id="4a45fea47e"><rect x="0" width="146" y="0" height="17"/></clipPath><clipPath id="8eaea8a737"><rect x="0" width="232" y="0" height="142"/></clipPath></defs><g clip-path="url(#162f004bdc)"><path fill="#ffffff" d="M 0 0.0273438 L 232 0.0273438 L 232 141.472656 L 0 141.472656 Z M 0 0.0273438 " fill-opacity="1" fill-rule="nonzero"/><g transform="matrix(1, 0, 0, 1, 0, 0.000000000000006561)"><g clip-path="url(#8eaea8a737)"><g clip-path="url(#32fd6ef84c)"><path fill="#fafafa" d="M 0 0.0273438 L 232.03125 0.0273438 L 232.03125 141.492188 L 0 141.492188 Z M 0 0.0273438 " fill-opacity="1" fill-rule="nonzero"/></g><g clip-path="url(#cdcafc0d5d)"><path stroke-linecap="round" transform="matrix(0.153684, 0, 0, 0.153421, -63.293425, 86.436639)" fill="none" stroke-linejoin="round" d="M 417.256593 -581.165833 C 417.739526 -580.987606 418.476633 -580.987606 418.705391 -580.631153 C 430.041594 -562.910338 446.893395 -551.783906 464.71106 -541.59953 C 481.130763 -532.178982 498.770505 -525.63552 516.232326 -518.6083 C 535.066691 -511.0464 553.545211 -502.797055 568.795709 -488.717155 C 580.97069 -477.48888 589.968483 -464.198269 593.526933 -448.106954 C 596.729538 -433.568756 594.111535 -419.183324 588.850114 -405.128885 C 581.301117 -385.040202 568.033184 -368.948887 553.672298 -353.723244 C 537.481353 -336.588031 520.426213 -320.293028 504.336937 -303.081432 C 485.705912 -283.170976 470.023317 -261.045418 457.822918 -236.628375 C 451.341457 -223.643295 446.715472 -209.843465 443.89413 -195.63626 C 441.809895 -185.171813 440.74236 -174.376374 441.835313 -163.657318 C 443.58912 -146.420261 448.393027 -129.819727 455.840353 -114.21217 C 465.804012 -93.359659 479.071945 -74.645867 494.144521 -57.077818 C 509.395019 -39.331542 526.500994 -23.418453 542.259842 -6.181396 C 566.406464 20.196139 587.579239 48.483245 600.211735 82.346297 C 604.507292 93.854642 607.252381 105.846746 609.641626 117.86431 C 614.293028 141.008305 624.002512 160.842379 644.234839 174.336678 C 654.452673 181.134749 665.483866 185.539492 677.7351 187.423601 C 705.414753 191.7265 728.39217 181.516663 749.2091 164.788825 C 772.97446 145.642197 788.860395 120.56317 801.747066 93.345423 C 810.74486 74.3261 819.844324 55.38316 830.723012 37.331353 C 844.524713 14.467427 861.656106 -5.621255 881.761345 -23.138383 C 898.562311 -37.752963 916.354558 -50.967192 936.231041 -61.177029 C 956.463368 -71.590554 977.686978 -79.203376 999.723948 -84.7284 C 1013.627318 -88.216549 1027.708611 -90.96633 1041.789905 -93.486964 C 1055.184925 -95.880292 1068.529111 -98.24816 1081.771627 -101.583543 C 1101.139759 -106.472044 1117.78822 -115.994436 1132.250775 -129.6415 C 1151.161393 -147.48962 1163.438044 -169.742483 1174.723412 -192.65733 C 1187.000063 -217.55813 1198.412519 -242.815384 1207.181556 -269.167458 C 1212.061715 -283.883882 1216.001427 -298.854916 1218.899022 -314.131481 C 1221.593276 -328.262303 1222.482889 -342.469508 1221.542441 -356.651253 C 1220.703664 -369.483567 1217.450224 -381.806663 1206.774876 -390.692531 C 1197.599159 -398.305353 1187.127151 -400.240384 1175.740112 -398.127126 C 1160.210022 -395.25004 1146.840418 -387.509913 1133.750408 -379.158725 C 1107.138289 -362.201738 1082.432482 -342.596813 1057.26916 -323.628412 C 1039.044815 -309.930425 1020.286702 -297.149033 999.723948 -287.193805 C 982.287545 -278.740772 963.96153 -272.579225 945.228835 -267.690724 C 935.671856 -265.221013 926.038625 -263.056833 916.252888 -261.63102 C 905.399617 -260.077902 894.622599 -257.990105 883.718493 -256.793441 C 877.389536 -256.105996 871.060579 -255.469472 864.731623 -254.705644 C 855.250896 -253.53444 845.6685 -253.101604 836.264026 -251.548487 C 825.817435 -249.842604 815.447097 -247.882112 805.178428 -244.87772 C 783.116041 -238.487024 767.306358 -224.941803 755.715979 -205.667871 C 746.311506 -190.009392 740.948414 -172.670491 734.771962 -155.662582 C 729.739298 -141.837291 724.096614 -128.393914 715.785092 -116.12174 C 706.050191 -101.812691 692.680588 -93.028667 675.727117 -90.889948 C 665.814294 -89.642362 655.621877 -90.253424 645.734471 -93.10505 C 612.895065 -102.601981 588.900949 -122.512437 574.87049 -153.727551 C 570.193671 -164.191998 568.211106 -175.267507 569.532816 -187.183228 C 572.049148 -209.716161 584.656227 -225.858397 600.211735 -240.702126 C 614.87763 -254.680183 633.000305 -262.802223 650.741718 -271.63717 C 664.492584 -278.486163 678.929722 -284.062109 691.714723 -292.718829 C 708.490271 -304.125331 717.970997 -320.242107 721.859874 -340.152563 C 724.655798 -354.41069 725.494576 -368.796122 724.554128 -383.156092 C 723.715351 -395.53011 722.114049 -407.878666 719.953562 -420.201762 C 715.835927 -443.523984 710.447418 -466.489753 703.711781 -489.149991 C 696.645717 -512.879588 688.156273 -536.099967 675.752535 -557.665384 C 671.43156 -565.150901 666.805576 -572.43273 660.730794 -578.67066 C 659.739512 -579.689098 658.8499 -580.936684 657.248597 -581.165833 " stroke="#000000" stroke-width="0.5" stroke-opacity="0.25" stroke-miterlimit="4"/></g><g clip-path="url(#a9251b97ce)"><path stroke-linecap="round" transform="matrix(0.153684, 0, 0, 0.153421, -63.293425, 86.436639)" fill="none" stroke-linejoin="round" d="M 700.737934 -580.656614 C 707.371901 -568.206214 711.896215 -554.839219 716.725539 -541.650452 C 724.477876 -520.49241 730.908503 -498.926992 736.729109 -477.157888 C 740.795909 -462.008628 744.735621 -446.808446 748.751585 -431.659186 C 756.453087 -402.582791 765.959231 -374.270224 783.217711 -349.140275 C 797.934441 -327.753084 817.861759 -314.589778 843.203003 -308.479152 C 866.027915 -302.928667 889.081584 -301.579237 912.236924 -302.877745 C 933.613039 -304.09987 954.226629 -309.497589 974.306451 -317.492325 C 1004.578689 -329.53535 1030.097856 -348.707439 1055.261178 -368.668817 C 1077.221895 -386.084101 1097.708397 -405.230729 1119.262434 -423.12977 C 1139.494762 -439.933991 1160.108352 -456.279916 1183.772041 -468.093793 C 1195.972439 -474.178957 1208.630353 -478.609161 1222.762481 -477.76895 C 1232.395712 -477.20881 1240.758069 -474.026192 1247.697045 -467.610035 C 1261.956261 -454.446728 1269.937355 -437.667968 1274.766679 -419.157863 C 1278.858896 -403.550306 1279.596004 -387.611757 1278.579304 -371.673208 C 1277.588021 -356.091112 1274.105824 -340.814547 1270.2932 -325.639826 C 1262.362941 -294.068259 1250.79798 -263.693356 1239.614281 -233.216609 C 1226.702193 -197.953206 1212.798822 -163.071716 1197.675412 -128.699445 C 1190.304338 -111.920685 1182.424914 -95.396534 1169.817835 -81.596704 C 1160.972547 -71.896085 1149.915935 -65.938225 1138.249305 -60.642349 C 1126.455586 -55.295552 1114.001013 -52.622153 1101.266847 -50.559817 C 1091.125266 -48.930316 1080.958267 -47.733652 1070.765851 -46.562449 C 1048.957639 -44.067277 1027.047757 -42.00494 1005.773312 -36.505377 C 985.922247 -31.387728 966.960794 -23.774906 949.219382 -13.208616 C 922.175165 2.857238 899.655263 23.607905 883.896415 50.927495 C 875.864486 64.85463 869.484695 79.774742 863.791175 94.847619 C 850.497825 129.932796 830.392585 160.511386 803.729631 186.838 C 785.86113 204.482432 765.730473 218.944247 742.753056 229.357772 C 724.249118 237.759882 704.779316 241.248031 684.775746 239.134773 C 661.772912 236.741445 640.422214 228.644865 620.215305 217.365668 C 598.890025 205.449948 579.776067 190.809907 563.788462 172.299802 C 550.596781 157.048698 542.38693 139.557032 539.64184 119.341044 C 536.49007 96.146127 533.287466 72.900288 524.772604 50.825651 C 519.257008 36.491142 511.148826 23.709749 502.252702 11.335732 C 488.451002 -7.836357 472.260056 -24.971571 456.780801 -42.692386 C 442.06407 -59.547529 427.321922 -76.428133 417.256593 -96.669581 C 410.114277 -111.029552 405.92039 -126.255195 403.58198 -142.142822 C 402.743203 -147.973378 402.26027 -153.880316 401.95526 -159.65995 C 401.141901 -175.242046 404.979943 -190.340384 409.300917 -205.133191 C 416.799079 -230.670515 428.846972 -254.06912 442.67409 -276.703897 C 460.33925 -305.627526 480.978258 -332.285132 502.6848 -358.20437 C 511.809681 -369.127114 519.968698 -380.788225 526.246819 -393.671461 C 531.736999 -404.899736 534.100826 -416.866379 532.575776 -429.138552 C 530.745716 -443.931359 522.408777 -455.134173 510.767564 -464.198269 C 498.363825 -473.847965 483.952105 -479.703982 469.667472 -485.458154 C 446.918812 -494.624093 424.39891 -504.197407 402.26027 -514.687315 C 401.802756 -514.916464 401.573998 -515.654831 401.243571 -516.16405 " stroke="#000000" stroke-width="0.5" stroke-opacity="0.25" stroke-miterlimit="4"/></g><g clip-path="url(#13c9079d9b)"><path stroke-linecap="round" transform="matrix(0.153684, 0, 0, 0.153421, -63.293425, 86.436639)" fill="none" stroke-linejoin="round" d="M 734.238195 -581.165833 C 737.669557 -578.288746 737.415382 -573.833082 738.635422 -570.141245 C 746.260671 -546.564414 752.487957 -522.605668 758.842331 -498.697844 C 765.476298 -473.771582 772.542362 -448.870782 782.912701 -425.217567 C 794.045564 -399.833009 808.940217 -376.918162 832.756412 -361.157839 C 848.10858 -351.024385 864.934963 -345.091985 883.210143 -342.469508 C 894.622599 -340.840008 905.958802 -340.712703 917.218753 -341.807524 C 934.705991 -343.487946 951.583209 -348.070915 967.748737 -355.149057 C 1001.909852 -370.018247 1030.631624 -392.627563 1057.218325 -418.164887 C 1084.440464 -444.287812 1111.332176 -470.74173 1138.833907 -496.559125 C 1156.219475 -512.905049 1174.570907 -528.308919 1195.794517 -539.562655 C 1208.833693 -546.46257 1222.686229 -550.765469 1237.733387 -551.834828 C 1265.489293 -553.820782 1285.21327 -541.217616 1300.768778 -519.67766 C 1313.121682 -502.567907 1320.874018 -483.421279 1325.550838 -463.103448 C 1327.431732 -454.854103 1328.524685 -446.273766 1328.855112 -437.667968 C 1329.08387 -431.837412 1330.024317 -426.032318 1329.744725 -420.15084 C 1329.058452 -406.580158 1327.711325 -393.060399 1325.22041 -379.667944 C 1318.383104 -342.876883 1305.62352 -307.817167 1293.270617 -272.655607 C 1285.1116 -249.384307 1277.028836 -226.062085 1269.301917 -202.638019 C 1263.430476 -184.789899 1258.626569 -166.559865 1254.890197 -148.126144 C 1252.475535 -136.184962 1250.874232 -123.96371 1251.789262 -111.666076 C 1253.568487 -87.223572 1261.676668 -65.938225 1281.121053 -49.515918 C 1294.160229 -38.516791 1308.089017 -28.612485 1320.721513 -17.129601 C 1340.369238 0.718519 1358.339408 19.992452 1370.768564 43.823893 C 1378.393813 58.489395 1383.528148 73.842342 1385.891975 90.315571 C 1387.722034 103.046042 1387.798287 115.70013 1386.578247 128.328757 C 1385.53613 138.996891 1383.426478 149.563182 1379.893446 159.900324 C 1374.987869 174.158451 1359.000263 180.269077 1344.20728 177.519295 C 1316.858054 172.478029 1292.304752 160.384082 1267.217683 149.359494 C 1241.520594 138.054836 1216.687699 125.018834 1192.769835 110.327871 C 1171.978323 97.57194 1153.11854 82.295375 1134.716272 66.382287 C 1125.057624 58.031098 1116.008995 49.017925 1105.816579 41.226877 C 1091.481111 30.278672 1075.823933 23.251452 1057.752093 21.240038 C 1040.544447 19.355928 1023.641812 19.661459 1007.247527 25.873929 C 987.447297 33.384907 972.273051 46.955588 958.700108 62.792294 C 945.127165 78.628999 934.502651 96.375275 924.310235 114.376161 C 906.111307 146.482408 886.006067 177.086459 860.359813 203.947752 C 837.585736 227.779193 813.261192 249.675603 785.683208 267.752871 C 771.500245 277.071576 756.834349 285.550069 740.287559 290.489492 C 729.40887 293.723031 718.504764 296.014516 707.244813 295.225227 C 691.918063 294.181328 677.175915 290.107577 662.738776 284.862624 C 639.710525 276.536896 618.003982 265.359543 596.272023 254.284033 C 575.455093 243.717742 554.790668 232.973225 532.270766 226.251537 C 516.130656 221.413958 500.193885 220.11545 484.257115 226.378841 C 476.174351 229.561459 469.235374 234.73003 462.77933 240.382359 C 447.605085 253.64751 435.277599 269.433293 423.763473 285.8556 C 416.621156 295.989055 409.656762 306.224353 403.226135 316.841566 C 402.285688 318.394683 401.116483 319.845957 401.243571 321.83191 " stroke="#000000" stroke-width="0.5" stroke-opacity="0.25" stroke-miterlimit="4"/></g><g clip-path="url(#6c78f88023)"><path stroke-linecap="round" transform="matrix(0.153684, 0, 0, 0.153421, -63.293425, 86.436639)" fill="none" stroke-linejoin="round" d="M 589.231376 -581.165833 C 594.823225 -580.605692 598.43251 -576.48102 602.728067 -573.629394 C 622.757054 -560.415166 640.396797 -544.731226 653.25805 -524.158785 C 663.806311 -507.25272 670.694453 -488.818999 675.7017 -469.64691 C 679.082227 -456.559986 681.166462 -443.269375 681.878152 -429.673232 C 683.454036 -399.85847 677.7351 -372.055122 660.679959 -347.205243 C 652.190515 -334.882148 640.600137 -325.614365 628.755583 -316.652114 C 610.073723 -302.495831 590.425998 -289.638055 572.710003 -274.183264 C 555.959873 -259.568684 540.429782 -243.859283 529.830686 -224.101592 C 522.68837 -210.78552 517.757375 -196.629237 517.731958 -181.148984 C 517.681123 -161.900513 523.09505 -144.103315 532.804533 -127.706469 C 548.461711 -101.278012 570.397011 -80.756493 595.255323 -63.188444 C 611.980036 -51.374567 629.772283 -41.4448 648.759153 -33.679213 C 661.086639 -28.637946 673.922475 -24.920649 687.241243 -24.818805 C 708.591941 -24.6915 726.892538 -33.017228 742.219289 -47.68273 C 757.673127 -62.500998 768.50098 -80.501884 777.829201 -99.623051 C 786.547403 -117.420248 793.562632 -136.006736 803.602543 -153.243793 C 816.819641 -176.056796 836.060686 -190.696837 860.766493 -198.61519 C 874.110679 -202.892628 887.937797 -205.184113 901.739498 -207.730207 C 928.377034 -212.66963 955.014571 -217.736357 980.762495 -226.622226 C 1011.746424 -237.341282 1041.408642 -251.064729 1070.791268 -265.552005 C 1081.339529 -270.720576 1092.167383 -275.481772 1103.732344 -278.180632 C 1110.061301 -279.657366 1116.390257 -280.344812 1122.744632 -278.638929 C 1129.531103 -276.831202 1134.385845 -269.396607 1134.74169 -260.663504 C 1135.936312 -231.994484 1124.778031 -207.832051 1107.163706 -186.215712 C 1095.54791 -171.957585 1080.602422 -161.849591 1063.725204 -154.695066 C 1052.134826 -149.755644 1039.985262 -146.547565 1027.759446 -143.645018 C 1001.477755 -137.432548 974.916471 -132.238516 949.244799 -123.658179 C 910.152689 -110.647638 875.178214 -90.96633 845.6685 -61.762631 C 822.233568 -38.593174 802.204581 -12.699397 782.226428 13.321685 C 770.788555 28.267257 759.528604 43.365596 745.726903 56.325215 C 739.652121 62.053927 733.17066 67.29888 725.240401 70.328732 C 713.548352 74.784397 702.288401 72.874827 691.23179 67.859021 C 679.463489 62.512223 669.474413 54.517488 659.790347 46.268143 C 624.815871 16.453381 589.739726 -13.259538 555.37527 -43.787206 C 531.864086 -64.690639 511.733429 -88.80215 495.364561 -115.739826 C 486.925952 -129.616039 482.122045 -144.968987 479.656548 -161.162146 C 475.360991 -189.296486 482.47789 -214.757427 496.787941 -238.63979 C 515.012286 -269.091076 541.039802 -292.489681 567.296076 -315.608215 C 581.555292 -328.160459 596.221188 -340.279867 609.209528 -354.181541 C 622.274122 -368.159598 633.406985 -383.334319 638.84633 -402.124494 C 641.032234 -409.711854 642.430197 -417.273754 642.811459 -425.166646 C 643.446897 -438.228108 642.506449 -451.009501 638.820912 -463.68905 C 629.009758 -497.577563 607.201546 -521.561769 577.768085 -539.71542 C 559.086225 -551.249227 538.93015 -560.135095 520.24829 -571.668902 C 516.359413 -574.087691 512.597624 -576.710168 508.734164 -579.128957 C 507.336202 -580.02009 506.192414 -581.471364 504.235267 -581.165833 " stroke="#000000" stroke-width="0.5" stroke-opacity="0.25" stroke-miterlimit="4"/></g><g clip-path="url(#ab80112248)"><path stroke-linecap="round" transform="matrix(0.153684, 0, 0, 0.153421, -63.293425, 86.436639)" fill="none" stroke-linejoin="round" d="M 1333.252339 -581.165833 C 1337.979993 -579.078036 1339.987976 -574.393222 1342.631395 -570.574081 C 1357.246456 -549.288734 1368.760582 -526.424809 1376.182491 -501.651313 C 1378.927581 -492.35807 1380.681388 -482.861138 1381.97768 -473.185981 C 1382.841875 -466.66798 1382.562283 -460.149979 1383.528148 -453.631978 C 1384.570265 -446.579297 1383.273973 -439.221085 1382.460613 -432.193865 C 1381.240573 -421.805801 1379.258008 -411.417737 1376.919598 -401.131517 C 1373.920334 -387.891828 1370.056874 -374.932208 1365.557977 -362.227199 C 1358.390243 -342.062133 1350.332897 -322.202599 1342.605978 -302.21576 C 1333.760689 -279.377296 1324.966235 -256.589753 1317.671414 -233.191148 C 1311.901642 -214.757427 1307.301075 -196.120018 1303.59012 -177.202539 C 1300.768778 -162.715263 1300.082506 -148.202526 1300.921283 -133.664329 C 1301.709226 -120.4501 1305.852278 -107.821474 1311.215369 -95.651144 C 1321.179028 -73.09275 1336.836206 -54.582645 1353.281326 -36.683604 C 1371.098992 -17.307827 1389.043744 1.915183 1403.353795 24.26989 C 1414.740833 42.016166 1422.874432 61.035489 1427.500417 81.378781 C 1429.965914 92.17422 1431.389294 103.27519 1432.965179 114.299778 C 1434.541063 125.477131 1436.091531 136.679945 1437.591163 147.857299 C 1439.268718 160.358621 1440.87002 172.859943 1444.860567 184.801124 C 1449.537386 198.728259 1458.967278 208.556183 1472.158958 215.481559 C 1491.349168 225.513169 1511.479826 232.998686 1531.737571 240.356898 C 1548.538536 246.442063 1565.619094 251.687017 1582.750487 256.779205 C 1603.262406 262.889831 1623.977666 268.236629 1644.718343 273.379739 C 1658.113364 276.689661 1671.686307 278.981146 1685.259251 281.272631 C 1702.619401 284.175178 1720.309979 284.404327 1737.720964 283.105819 C 1771.831244 280.559724 1801.874726 267.574644 1827.241387 244.328805 C 1849.939212 223.527216 1869.917364 200.434142 1884.58326 173.241857 C 1891.115556 161.173371 1895.970298 148.341056 1897.927445 134.363 C 1900.189603 118.39899 1896.173638 103.80987 1890.708876 89.348056 C 1884.252832 72.289225 1873.475814 57.82741 1862.74963 43.314674 C 1849.278357 25.08464 1835.349569 7.083754 1825.767172 -13.666913 C 1819.387381 -27.543126 1814.634309 -41.852175 1812.575492 -57.12874 C 1811.253782 -66.854819 1811.457122 -76.555438 1811.990889 -86.154213 C 1812.550074 -96.491355 1815.498504 -106.599348 1818.218176 -116.681881 C 1823.403345 -136.032197 1830.876089 -154.695066 1835.832501 -174.147226 C 1838.399668 -184.255219 1841.297263 -194.261369 1842.898565 -204.649433 C 1843.839013 -210.658215 1844.601537 -216.768841 1844.47445 -222.650319 C 1844.220275 -235.40625 1842.466468 -247.983955 1837.891318 -260.230668 C 1829.630632 -282.305304 1815.396834 -300.280729 1799.637986 -317.059489 C 1776.787656 -341.374688 1753.022297 -364.773293 1727.884393 -386.822468 C 1704.271538 -407.522213 1680.811189 -428.400185 1657.172917 -449.09993 C 1633.58548 -469.774215 1608.396741 -488.233397 1579.26829 -500.709258 C 1561.958974 -508.118392 1544.090474 -513.668877 1525.739042 -517.640784 C 1508.099299 -521.434464 1490.281634 -524.464317 1472.768978 -528.818137 C 1454.747973 -533.299263 1438.684115 -541.726835 1425.64494 -555.577587 C 1418.248448 -563.394096 1412.122831 -572.101738 1405.74304 -580.656614 " stroke="#000000" stroke-width="0.5" stroke-opacity="0.25" stroke-miterlimit="4"/></g><g clip-path="url(#bfd7a6b8ef)"><path stroke-linecap="round" transform="matrix(0.153684, 0, 0, 0.153421, -63.293425, 86.436639)" fill="none" stroke-linejoin="round" d="M 1281.731073 441.600178 C 1286.077465 426.170848 1290.50011 410.792439 1294.719414 395.337648 C 1298.837049 380.188388 1302.471751 364.937284 1306.818143 349.864407 C 1311.571214 333.365717 1317.747666 317.172558 1320.467338 300.291954 C 1326.13544 265.359543 1318.205181 234.602726 1290.373022 210.211144 C 1268.234383 190.784446 1242.943973 176.908233 1216.713117 164.381449 C 1194.85407 153.942464 1172.359585 145.005673 1149.788848 136.221648 C 1130.496968 128.710671 1110.849243 122.625506 1090.744003 117.813388 C 1077.552322 114.63077 1064.004797 114.274317 1050.762281 115.623747 C 1035.23219 117.227786 1020.591712 122.931037 1007.247527 131.358609 C 991.209086 141.492063 977.204046 154.12069 963.783607 167.385841 C 945.940525 185.030273 928.656627 203.260307 910.686457 220.777434 C 885.929815 244.888946 860.893581 268.669465 835.272744 291.889843 C 816.590884 308.821369 797.934441 325.854739 779.862601 343.448249 C 769.568515 353.47986 759.096506 363.48601 750.759568 375.350809 C 744.023931 384.924123 741.100919 395.770484 741.863444 407.329751 C 742.651386 419.525542 746.540263 431.008426 752.284617 441.829326 C 752.36087 441.956631 752.920055 441.829326 753.250482 441.829326 " stroke="#000000" stroke-width="0.5" stroke-opacity="0.25" stroke-miterlimit="4"/></g><g clip-path="url(#6b8fbf92a1)"><path stroke-linecap="round" transform="matrix(0.153684, 0, 0, 0.153421, -63.293425, 86.436639)" fill="none" stroke-linejoin="round" d="M 1936.231613 62.843216 C 1929.572229 55.179472 1922.96368 47.464807 1916.228043 39.851986 C 1898.003698 19.254084 1880.10978 -1.572966 1867.248527 -26.168235 C 1860.741648 -38.593174 1856.446091 -51.629176 1854.590614 -65.632694 C 1853.294321 -75.358773 1853.268904 -85.084853 1853.980594 -94.632706 C 1854.946459 -107.363177 1858.098228 -119.88996 1861.783765 -132.162133 C 1867.578954 -151.436066 1875.560048 -169.971631 1881.889005 -189.118259 C 1887.709612 -206.609926 1891.064721 -224.279819 1889.666759 -242.662619 C 1888.599224 -256.513371 1883.337802 -269.141997 1875.712553 -280.624882 C 1863.588407 -298.880377 1848.490414 -314.615239 1832.680731 -329.611733 C 1814.100541 -347.205243 1795.088254 -364.340457 1776.228471 -381.653897 C 1752.437694 -403.601228 1732.561212 -429.036709 1711.642612 -453.581056 C 1693.723277 -474.560872 1676.108952 -495.998984 1653.741555 -512.65044 C 1632.822955 -528.207075 1610.048878 -540.2501 1585.775169 -549.772492 C 1564.195714 -558.200064 1541.853734 -564.387072 1520.248862 -572.7128 C 1514.98744 -574.749676 1509.954776 -577.423074 1504.718772 -579.612715 C 1502.990382 -580.351083 1501.28741 -581.394981 1499.228592 -581.165833 " stroke="#000000" stroke-width="0.5" stroke-opacity="0.25" stroke-miterlimit="4"/></g><g clip-path="url(#b6f40d8d14)"><path stroke-linecap="round" transform="matrix(0.153684, 0, 0, 0.153421, -63.293425, 86.436639)" fill="none" stroke-linejoin="round" d="M 1936.231613 192.846782 C 1935.952021 197.40429 1932.012309 199.670314 1929.623064 202.751088 C 1905.247685 234.297194 1880.338538 265.435925 1851.693019 293.290195 C 1836.442521 308.108463 1820.836178 322.570278 1801.264706 331.888982 C 1784.387488 339.93464 1766.59524 342.989952 1748.269225 341.156765 C 1728.799423 339.221733 1710.14298 333.340256 1691.740712 326.847716 C 1657.732102 314.881073 1624.104754 301.79415 1589.740298 290.845945 C 1564.399054 282.774826 1538.930722 275.238388 1513.259051 268.313012 C 1502.20244 265.334082 1491.018741 263.220823 1479.75879 261.23487 C 1468.651344 259.274378 1457.467645 258.281401 1446.233112 257.899487 C 1424.72991 257.18658 1405.488865 263.220823 1389.221667 277.835404 C 1371.429419 293.824875 1359.610283 313.837175 1349.672042 335.300748 C 1340.420073 355.236665 1333.099834 375.834567 1326.694625 396.814382 C 1322.271981 411.327119 1318.001841 425.814394 1315.765101 440.83635 C 1315.612596 441.982092 1314.951741 441.829326 1314.240052 441.829326 " stroke="#000000" stroke-width="0.5" stroke-opacity="0.25" stroke-miterlimit="4"/></g><g clip-path="url(#1685091856)"><path stroke-linecap="round" transform="matrix(0.153684, 0, 0, 0.153421, -63.293425, 86.436639)" fill="none" stroke-linejoin="round" d="M 1250.747145 441.600178 C 1254.076837 428.66602 1257.508199 415.782784 1260.710804 402.823164 C 1263.532146 391.518507 1265.845138 380.112005 1268.818985 368.858269 C 1271.91992 357.146236 1273.673727 345.230515 1275.910467 333.365717 C 1277.460934 325.039989 1278.274294 316.637878 1278.452216 308.337611 C 1278.604721 300.393798 1277.511769 292.322679 1275.961302 284.302483 C 1272.072425 264.493871 1263.074631 247.460501 1250.18796 232.387624 C 1237.936727 218.053114 1222.660811 207.257675 1206.164856 198.47365 C 1188.703035 189.154945 1170.631195 181.185671 1151.28848 176.195326 C 1141.350239 173.623771 1131.361163 171.841505 1121.270417 170.237466 C 1110.467981 168.506122 1099.665545 167.003926 1088.761438 167.411302 C 1071.731716 168.047825 1055.057838 170.950372 1039.273572 177.39199 C 1019.219168 185.590414 1001.477755 197.684361 984.727625 211.331425 C 964.317375 227.982881 944.87299 245.754618 925.78445 263.882808 C 901.078643 287.332335 876.220331 310.680018 853.802099 336.395569 C 841.601701 350.424547 829.52839 364.606292 821.674383 381.792427 C 817.709254 390.474608 815.065834 399.360476 813.617037 408.806486 C 811.9649 419.500081 812.803677 429.888145 814.684572 440.352592 C 814.887912 441.447412 815.065834 442.007553 816.235039 441.829326 " stroke="#000000" stroke-width="0.5" stroke-opacity="0.25" stroke-miterlimit="4"/></g><g clip-path="url(#d93578fbb3)"><path stroke-linecap="round" transform="matrix(0.153684, 0, 0, 0.153421, -63.293425, 86.436639)" fill="none" stroke-linejoin="round" d="M 1212.239637 441.829326 C 1214.04428 442.134858 1213.459677 440.785428 1213.790105 439.843373 C 1220.907004 419.678308 1226.72761 399.105867 1231.556935 378.304278 C 1234.429112 365.879339 1235.750822 353.123407 1236.970862 340.367476 C 1238.775504 321.475457 1236.233754 303.550954 1229.853963 285.804678 C 1224.516288 270.986411 1215.670999 258.765159 1204.182291 248.402556 C 1185.271673 231.267342 1162.828024 220.471903 1138.223887 214.43766 C 1122.998807 210.720363 1107.239959 209.981995 1091.760703 211.586035 C 1069.418723 213.877519 1048.500124 221.439419 1028.699894 232.260319 C 1004.375349 245.55093 983.35508 263.144441 963.326092 281.934615 C 941.82289 302.099681 921.71765 323.614176 904.76418 347.852992 C 893.478811 363.969768 882.803463 380.366614 877.618293 399.793312 C 875.000291 409.595775 874.034426 419.321854 874.695281 429.328004 C 874.974874 433.427216 874.415689 437.577349 875.737399 441.600178 " stroke="#000000" stroke-width="0.5" stroke-opacity="0.25" stroke-miterlimit="4"/></g><g clip-path="url(#b9f39b7103)"><path stroke-linecap="round" transform="matrix(0.153684, 0, 0, 0.153421, -63.293425, 86.436639)" fill="none" stroke-linejoin="round" d="M 765.247541 -581.165833 C 768.551815 -579.20534 767.865543 -575.437121 768.551815 -572.610956 C 773.228635 -553.693477 778.413804 -534.903302 783.624391 -516.138589 C 790.33461 -491.848851 798.137781 -468.068332 809.753577 -445.662703 C 819.971411 -425.930474 833.061422 -408.566112 852.277049 -396.726774 C 864.477448 -389.215796 877.796216 -385.065663 892.233354 -383.487085 C 915.922461 -380.91553 937.883178 -386.567859 959.208458 -395.733797 C 979.034105 -404.263213 996.521343 -416.688152 1013.246056 -430.182451 C 1041.967827 -453.326447 1067.639499 -479.703982 1093.768685 -505.648681 C 1112.831808 -524.591621 1131.132405 -544.323851 1151.771413 -561.61183 C 1159.422079 -568.027987 1167.377756 -574.011308 1175.282597 -580.121934 C 1176.07054 -580.732997 1177.239744 -580.83484 1178.231027 -581.165833 " stroke="#000000" stroke-width="0.5" stroke-opacity="0.25" stroke-miterlimit="4"/></g><g clip-path="url(#5c3a15b60b)"><path stroke-linecap="round" transform="matrix(0.153684, 0, 0, 0.153421, -63.293425, 86.436639)" fill="none" stroke-linejoin="round" d="M 1166.233968 441.829326 C 1170.27535 439.48692 1170.98704 434.954872 1172.61376 431.288497 C 1177.163492 421.002277 1181.764059 410.766978 1184.839576 399.869695 C 1187.508413 390.296381 1189.516395 380.697606 1190.88894 370.869683 C 1192.31232 360.659846 1192.134397 350.450008 1191.549795 340.342015 C 1190.48226 321.297231 1186.288373 303.092658 1172.791683 288.299851 C 1161.557149 275.976755 1147.374186 268.822231 1131.717008 264.417488 C 1117.1782 260.343737 1102.207294 259.07069 1087.261806 261.438558 C 1064.411477 265.054011 1043.721634 274.143567 1024.734764 287.332335 C 1001.554007 303.398189 981.550437 322.723043 964.77489 345.35782 C 952.625326 361.703744 942.83959 379.246333 938.239023 399.335016 C 935.011001 413.465838 934.223059 427.545738 938.747373 441.600178 " stroke="#000000" stroke-width="0.5" stroke-opacity="0.25" stroke-miterlimit="4"/></g><g clip-path="url(#b3ce03db47)"><path stroke-linecap="round" transform="matrix(0.153684, 0, 0, 0.153421, -63.293425, 86.436639)" fill="none" stroke-linejoin="round" d="M 1694.231627 441.829326 C 1695.426249 442.007553 1695.731259 441.498334 1695.782094 440.327131 C 1696.773377 418.889018 1693.164092 398.876719 1678.777789 381.792427 C 1668.10244 369.087417 1654.961595 359.463181 1640.702379 351.392063 C 1609.820121 333.951318 1577.13322 320.558863 1543.175444 310.552713 C 1531.229221 307.039103 1518.825482 304.569392 1506.269239 303.143579 C 1495.59389 301.946915 1485.020212 300.241032 1474.243193 300.342876 C 1443.71678 300.622946 1417.892603 311.876682 1397.304431 334.384154 C 1379.181756 354.167306 1366.193415 376.929387 1358.669836 402.823164 C 1355.060551 415.14626 1351.857947 427.520277 1350.790412 440.352592 C 1350.688742 441.498334 1350.434567 442.007553 1349.239945 441.829326 " stroke="#000000" stroke-width="0.5" stroke-opacity="0.25" stroke-miterlimit="4"/></g><g clip-path="url(#c23efc9582)"><path stroke-linecap="round" transform="matrix(0.153684, 0, 0, 0.153421, -63.293425, 86.436639)" fill="none" stroke-linejoin="round" d="M 1115.24647 -581.165833 C 1111.738855 -580.707536 1110.010466 -577.652223 1107.824561 -575.589887 C 1081.797044 -550.943695 1056.4558 -525.559137 1029.691176 -501.702235 C 1009.103004 -483.319435 988.489414 -464.834792 964.215705 -451.187728 C 950.795266 -443.651289 936.688556 -437.922577 921.260135 -435.605631 C 889.259507 -430.793514 863.969098 -442.200015 843.711353 -466.642519 C 830.875517 -482.122771 822.691083 -500.047274 815.752107 -518.659222 C 809.01647 -536.761951 805.05134 -555.65397 799.917006 -574.214996 C 799.332404 -576.328254 798.747801 -578.772504 798.747801 -581.165833 " stroke="#000000" stroke-width="0.5" stroke-opacity="0.25" stroke-miterlimit="4"/></g><g clip-path="url(#176551e14d)"><path stroke-linecap="round" transform="matrix(0.153684, 0, 0, 0.153421, -63.293425, 86.436639)" fill="none" stroke-linejoin="round" d="M 1936.231613 -288.161321 C 1936.180778 -290.783798 1933.639028 -291.420321 1932.164814 -292.566063 C 1903.26512 -315.353606 1874.009581 -337.708312 1845.313227 -360.750464 C 1823.75919 -378.089365 1803.603115 -397.032305 1786.776732 -419.183324 C 1773.152954 -437.133288 1761.893003 -456.585447 1751.751422 -476.67413 C 1742.728211 -494.52225 1734.060844 -512.472213 1721.352096 -528.257997 C 1708.592513 -544.120163 1693.011587 -556.341415 1675.702272 -566.602174 C 1667.8991 -571.261527 1659.790919 -575.41166 1651.708155 -579.587254 C 1650.081435 -580.452926 1648.276793 -581.394981 1646.243393 -581.165833 " stroke="#000000" stroke-width="0.5" stroke-opacity="0.25" stroke-miterlimit="4"/></g><g clip-path="url(#7ca25a0eed)"><path stroke-linecap="round" transform="matrix(0.153684, 0, 0, 0.153421, -63.293425, 86.436639)" fill="none" stroke-linejoin="round" d="M 671.177385 406.693228 C 674.456242 396.152398 672.54993 375.248965 667.720606 366.846854 C 664.187574 360.736229 660.069939 354.982056 655.215197 349.864407 C 631.754848 325.090911 604.075194 306.708111 572.303323 294.181328 C 561.958402 290.107577 551.562646 286.339358 540.709375 284.50617 C 518.443648 280.737951 497.169203 284.531631 477.775653 296.39643 C 456.984141 309.10144 440.9457 326.720411 426.63565 346.248953 C 417.180341 359.15765 410.063442 373.263012 402.794038 387.368373 C 401.624833 389.634397 401.141901 392.205952 401.243571 394.828429 " stroke="#000000" stroke-width="0.5" stroke-opacity="0.25" stroke-miterlimit="4"/></g><g clip-path="url(#5f4416be5d)"><path stroke-linecap="round" transform="matrix(0.153684, 0, 0, 0.153421, -63.293425, 86.436639)" fill="none" stroke-linejoin="round" d="M 1634.246335 441.829326 C 1631.119983 440.963654 1632.848373 438.41756 1632.848373 436.838982 C 1632.848373 421.511495 1628.730738 407.686204 1618.741662 395.846867 C 1608.574663 383.752919 1596.22176 374.357832 1582.725069 366.363097 C 1569.380883 358.444744 1555.248755 352.461423 1540.252432 348.260367 C 1528.407879 344.975906 1516.51249 342.531656 1504.261257 341.105843 C 1493.814666 339.909179 1483.469745 340.036483 1473.277328 341.513218 C 1457.467645 343.804703 1442.878002 349.711641 1430.245506 359.819635 C 1410.191102 375.860028 1398.194043 396.559773 1393.618894 421.817027 C 1392.424271 428.309567 1392.093844 434.827568 1391.229649 441.345569 " stroke="#000000" stroke-width="0.5" stroke-opacity="0.25" stroke-miterlimit="4"/></g><g clip-path="url(#13073e4eb2)"><path stroke-linecap="round" transform="matrix(0.153684, 0, 0, 0.153421, -63.293425, 86.436639)" fill="none" stroke-linejoin="round" d="M 1086.245106 441.829326 C 1092.446975 442.694998 1096.36127 438.341178 1100.707662 435.285865 C 1118.830337 422.606316 1128.336481 404.503587 1132.70829 383.320083 C 1134.84336 372.95748 1134.74169 362.67126 1131.818678 352.308657 C 1127.497703 336.955709 1117.051112 328.018919 1102.207294 324.479848 C 1085.507999 320.48248 1069.469558 324.148856 1054.803663 332.449123 C 1038.917727 341.462296 1025.827717 353.658087 1016.702835 369.800324 C 1010.246791 381.232286 1007.222109 393.50446 1008.925081 406.311313 C 1011.034734 421.969792 1019.549595 433.834591 1033.732558 441.37103 C 1035.257608 442.211241 1036.75724 441.574717 1038.231455 441.829326 " stroke="#000000" stroke-width="0.5" stroke-opacity="0.25" stroke-miterlimit="4"/></g><g clip-path="url(#66bee5f1e6)"><path stroke-linecap="round" transform="matrix(0.153684, 0, 0, 0.153421, -63.293425, 86.436639)" fill="none" stroke-linejoin="round" d="M 597.746237 441.829326 C 600.415075 432.688849 602.982242 423.471988 602.702649 413.847752 C 601.940124 386.171709 590.222658 364.606292 566.203124 350.399086 C 553.799386 343.066335 540.201025 340.825772 525.738469 341.156765 C 502.227285 341.691444 483.59626 352.38504 466.769877 367.356073 C 454.747401 378.07513 445.11417 390.729217 438.302281 405.369259 C 434.667579 413.083924 432.837519 421.333269 431.541227 429.811762 C 430.931207 433.656364 431.414139 437.60281 430.244934 441.345569 " stroke="#000000" stroke-width="0.5" stroke-opacity="0.25" stroke-miterlimit="4"/></g><g clip-path="url(#54a9aede60)"><path stroke-linecap="round" transform="matrix(0.153684, 0, 0, 0.153421, -63.293425, 86.436639)" fill="none" stroke-linejoin="round" d="M 1745.244543 -581.165833 C 1755.157367 -572.025355 1762.630111 -560.975306 1769.74701 -549.670648 C 1782.379506 -529.505583 1789.572657 -506.998111 1796.587886 -484.617943 C 1809.957489 -442.021789 1835.451239 -408.642495 1871.264491 -382.672335 C 1891.496819 -368.032293 1913.000021 -355.530971 1935.977438 -345.652126 " stroke="#000000" stroke-width="0.5" stroke-opacity="0.25" stroke-miterlimit="4"/></g><g clip-path="url(#fd24fb8435)"><path stroke-linecap="round" transform="matrix(0.153684, 0, 0, 0.153421, -63.293425, 86.436639)" fill="none" stroke-linejoin="round" d="M 1045.246684 -581.165833 C 1038.18062 -577.85591 1033.173373 -571.89805 1027.276514 -567.111393 C 1007.450867 -551.020078 988.133569 -534.241318 966.757454 -520.161417 C 952.523656 -510.76633 937.146071 -503.866415 920.218018 -501.82954 C 903.569558 -499.818125 888.166555 -504.27379 874.746116 -514.661854 C 858.555171 -527.214098 848.286502 -543.992858 840.788341 -562.681189 C 838.449931 -568.537206 836.746959 -574.647832 834.738977 -580.656614 " stroke="#000000" stroke-width="0.5" stroke-opacity="0.25" stroke-miterlimit="4"/></g><g clip-path="url(#bc237b6ede)"><path stroke-linecap="round" transform="matrix(0.153684, 0, 0, 0.153421, -63.293425, 86.436639)" fill="none" stroke-linejoin="round" d="M 1801.239288 -581.165833 C 1806.576962 -577.652223 1808.610362 -571.719823 1811.685879 -566.627635 C 1822.005383 -549.619726 1828.613932 -530.982317 1834.739549 -512.166682 C 1839.187611 -498.468695 1842.517303 -484.414256 1848.261657 -471.174566 C 1861.682095 -440.341367 1883.46489 -417.401058 1913.762546 -402.684634 C 1920.854028 -399.221946 1928.047179 -395.937485 1935.265748 -392.729406 C 1936.231613 -392.29657 1936.231613 -391.889195 1936.231613 -391.150828 " stroke="#000000" stroke-width="0.5" stroke-opacity="0.25" stroke-miterlimit="4"/></g><g clip-path="url(#793c631234)"><path stroke-linecap="round" transform="matrix(0.153684, 0, 0, 0.153421, -63.293425, 86.436639)" fill="none" stroke-linejoin="round" d="M 1936.231613 278.82838 C 1936.155361 279.668592 1936.409535 280.865256 1935.952021 281.298092 C 1911.271631 303.856486 1889.717594 329.291966 1868.188974 354.803829 C 1852.252204 373.670387 1834.129529 390.398225 1815.752679 406.845993 C 1803.55228 417.794198 1791.224794 428.615098 1779.736086 440.327131 C 1779.049813 441.014576 1778.566881 442.160319 1777.245171 441.829326 " stroke="#000000" stroke-width="0.5" stroke-opacity="0.25" stroke-miterlimit="4"/></g><g clip-path="url(#ff10c2fb7e)"><path stroke-linecap="round" transform="matrix(0.153684, 0, 0, 0.153421, -63.293425, 86.436639)" fill="none" stroke-linejoin="round" d="M 401.243571 -29.172626 C 405.081613 -25.328024 408.741732 -21.305195 412.783114 -17.689742 C 424.50058 -7.199834 434.667579 4.614043 443.28411 17.802811 C 452.231069 31.551719 457.848336 46.369987 458.204181 62.843216 C 458.636278 84.230406 447.579667 103.758948 425.746037 110.83709 C 417.714108 113.434106 409.453422 112.46659 401.243571 112.339286 " stroke="#000000" stroke-width="0.5" stroke-opacity="0.25" stroke-miterlimit="4"/></g><g clip-path="url(#eca8a91fbc)"><path stroke-linecap="round" transform="matrix(0.153684, 0, 0, 0.153421, -63.293425, 86.436639)" fill="none" stroke-linejoin="round" d="M 1936.231613 -161.162146 C 1932.291901 -155.815348 1926.700052 -152.047129 1922.709505 -146.700331 C 1911.881651 -132.136673 1904.18015 -116.503655 1901.587565 -98.171777 C 1897.317426 -67.745952 1905.857704 -41.597565 1925.708769 -18.631796 C 1929.267219 -14.532585 1933.562776 -11.018975 1936.231613 -6.155935 " stroke="#000000" stroke-width="0.5" stroke-opacity="0.25" stroke-miterlimit="4"/></g><g clip-path="url(#f2b11034e0)"><path stroke-linecap="round" transform="matrix(0.153684, 0, 0, 0.153421, -63.293425, 86.436639)" fill="none" stroke-linejoin="round" d="M 1848.236239 -581.165833 C 1853.497661 -577.906832 1855.175216 -572.025355 1857.564461 -567.060471 C 1865.69806 -550.179867 1871.493249 -532.331747 1877.745953 -514.661854 C 1887.811282 -486.272905 1903.290537 -461.881323 1928.682616 -444.567883 C 1931.224366 -442.836539 1934.731981 -442.32732 1936.231613 -439.170163 " stroke="#000000" stroke-width="0.5" stroke-opacity="0.25" stroke-miterlimit="4"/></g><g clip-path="url(#b5d4fec413)"><path stroke-linecap="round" transform="matrix(0.153684, 0, 0, 0.153421, -63.293425, 86.436639)" fill="none" stroke-linejoin="round" d="M 401.751921 -421.653036 C 414.562339 -416.255316 423.153453 -406.88569 427.169417 -393.646 C 429.685749 -385.294812 429.075729 -376.765396 427.830272 -368.159598 C 424.424328 -344.073548 413.876066 -322.788201 402.794038 -301.630159 C 401.95526 -300.000658 400.989396 -298.192931 401.243571 -296.156056 " stroke="#000000" stroke-width="0.5" stroke-opacity="0.25" stroke-miterlimit="4"/></g><g clip-path="url(#868e89edad)"><path stroke-linecap="round" transform="matrix(0.153684, 0, 0, 0.153421, -63.293425, 86.436639)" fill="none" stroke-linejoin="round" d="M 1936.231613 346.834555 C 1936.155361 347.674766 1936.409535 348.795047 1935.952021 349.304266 C 1909.441571 378.126051 1883.439472 407.431595 1858.708248 437.806498 C 1857.462791 439.334154 1856.801936 441.676561 1854.234769 441.829326 " stroke="#000000" stroke-width="0.5" stroke-opacity="0.25" stroke-miterlimit="4"/></g><g clip-path="url(#40ad93f28a)"><path stroke-linecap="round" transform="matrix(0.153684, 0, 0, 0.153421, -63.293425, 86.436639)" fill="none" stroke-linejoin="round" d="M 1897.749523 -581.165833 C 1901.307973 -567.900682 1907.052327 -555.552126 1913.838798 -543.712788 C 1919.888163 -533.146497 1927.081314 -523.318574 1935.723263 -514.636393 C 1936.053691 -514.305401 1936.079108 -513.668877 1936.231613 -513.159659 " stroke="#000000" stroke-width="0.5" stroke-opacity="0.25" stroke-miterlimit="4"/></g><path stroke-linecap="round" transform="matrix(0.153684, 0, 0, 0.153421, -63.293425, 86.436639)" fill="none" stroke-linejoin="round" d="M 1532.322173 -450.678509 C 1524.824012 -450.16929 1518.34255 -448.590712 1511.708583 -446.859368 C 1495.39055 -442.581929 1481.004247 -435.02003 1468.244664 -424.148208 C 1444.53014 -403.983142 1426.890397 -378.929576 1410.724869 -352.679346 C 1398.600723 -333.023499 1387.722034 -312.705668 1378.292143 -291.64947 C 1368.913087 -270.618732 1360.474478 -249.20608 1353.764259 -227.156905 C 1350.180392 -215.36849 1347.486137 -203.427308 1345.478155 -191.206056 C 1342.936405 -175.700343 1342.199298 -160.19463 1342.910988 -144.663456 C 1343.571843 -130.609016 1347.536972 -117.089256 1353.255909 -104.180559 C 1361.6691 -85.237619 1373.971169 -68.891694 1387.213685 -53.156833 C 1402.89628 -34.519424 1420.45977 -17.562437 1435.252753 1.8388 C 1449.232376 20.145217 1459.34854 40.463048 1466.185847 62.359458 C 1471.879366 80.640414 1475.437816 99.48151 1478.792925 118.322607 C 1482.249705 137.851149 1487.485709 156.717706 1500.728225 172.350724 C 1513.614896 187.601828 1530.034598 197.811665 1547.750594 206.341081 C 1569.228378 216.703684 1591.672028 224.291044 1614.70028 230.528975 C 1627.612368 234.042585 1640.702379 236.537757 1653.766972 239.185695 C 1660.960124 240.66243 1668.40745 240.764273 1675.753107 241.324414 C 1684.395056 241.960938 1693.037005 241.960938 1701.755206 241.451719 C 1735.687564 239.465765 1766.620658 229.459615 1793.207359 207.792354 C 1809.423722 194.578126 1822.869578 178.945108 1832.807819 160.358621 C 1840.026388 146.864322 1843.86443 132.555273 1842.618973 117.355091 C 1841.475185 103.427956 1836.290016 90.646564 1829.808554 78.298007 C 1820.429498 60.500809 1807.695332 44.918713 1797.197906 27.859882 C 1788.454287 13.601755 1780.295271 -0.860059 1775.643869 -17.129601 C 1773.127537 -26.015469 1771.602487 -34.977721 1770.56037 -44.143659 C 1769.721592 -51.501872 1769.619922 -58.834623 1769.823262 -66.167374 C 1770.204525 -78.923305 1772.466682 -91.475549 1776.279306 -103.645879 C 1781.972826 -121.850452 1787.768015 -140.055025 1793.791962 -158.132294 C 1797.426664 -168.978655 1800.629268 -179.977781 1802.63725 -191.180595 C 1808.2291 -222.166561 1802.510163 -251.141112 1786.319218 -278.206093 C 1775.465946 -296.334283 1761.943838 -312.22191 1746.69334 -326.607342 C 1724.630953 -347.434392 1701.043516 -366.504637 1676.718972 -384.632827 C 1654.326157 -401.360665 1631.730003 -417.935738 1606.668351 -430.538904 C 1590.248648 -438.81371 1573.295178 -446.070078 1554.765823 -448.743477 C 1547.267661 -449.838298 1539.820335 -450.831274 1532.245921 -450.653048 " stroke="#000000" stroke-width="0.5" stroke-opacity="0.25" stroke-miterlimit="4"/><path stroke-linecap="round" transform="matrix(0.153684, 0, 0, 0.153421, -63.293425, 86.436639)" fill="none" stroke-linejoin="round" d="M 1543.734629 -387.662679 C 1535.728118 -386.185944 1527.543684 -385.702187 1519.740512 -383.156092 C 1502.558285 -377.554685 1487.460291 -368.286903 1474.294028 -356.091112 C 1447.122724 -330.961163 1427.271659 -300.637182 1411.589064 -267.232427 C 1406.124302 -255.571316 1400.86288 -243.808361 1396.923168 -231.61257 C 1392.805534 -218.780256 1389.450424 -205.667871 1387.56953 -192.199033 C 1385.94281 -180.461539 1385.53613 -168.800428 1386.85784 -157.190239 C 1389.145414 -136.999712 1395.321866 -118.00585 1405.158437 -100.132269 C 1417.511341 -77.70118 1435.100248 -59.623912 1452.282476 -41.19019 C 1469.744296 -22.501859 1487.714466 -4.322747 1501.846595 17.268131 C 1512.928623 34.250579 1520.858882 52.506074 1526.831994 71.805467 C 1531.102133 85.68168 1534.152233 99.837963 1537.507342 113.892403 C 1542.362084 134.006547 1552.503666 150.276088 1568.262513 163.337551 C 1582.267554 174.973201 1597.721392 183.935452 1615.20863 189.409555 C 1625.553551 192.643094 1636.000142 194.934579 1646.726326 196.462235 C 1657.884607 198.040814 1669.068305 198.931947 1680.252004 198.244501 C 1711.947622 196.284009 1741.101491 187.678211 1764.25683 164.330528 C 1771.856662 156.666784 1777.982279 147.857299 1781.489893 137.749305 C 1783.497875 132.071515 1783.85372 125.731741 1782.93869 119.315583 C 1781.845738 111.524535 1780.905291 103.80987 1778.287289 96.324353 C 1774.195072 84.637781 1767.61194 74.300639 1761.232148 63.861653 C 1751.395577 47.770338 1740.948986 32.060938 1732.332455 15.307638 C 1727.172703 5.250567 1723.309243 -5.290263 1721.657106 -16.645843 C 1719.039104 -34.41758 1722.190873 -51.501872 1726.18142 -68.688007 C 1732.459542 -95.82937 1743.566988 -121.341233 1752.259772 -147.667847 C 1756.377406 -160.169169 1760.444206 -172.721413 1762.630111 -185.681032 C 1768.247377 -219.085787 1762.020091 -249.969909 1741.787763 -277.696874 C 1724.935963 -300.739026 1703.763188 -319.198208 1680.684101 -335.595054 C 1662.942689 -348.19822 1644.591256 -359.961175 1624.740191 -369.178036 C 1607.456293 -377.198232 1589.613211 -383.63985 1570.728011 -386.542398 C 1562.009809 -387.891828 1553.113685 -388.044593 1544.242979 -387.662679 " stroke="#000000" stroke-width="0.5" stroke-opacity="0.25" stroke-miterlimit="4"/><path stroke-linecap="round" transform="matrix(0.153684, 0, 0, 0.153421, -63.293425, 86.436639)" fill="none" stroke-linejoin="round" d="M 1559.722235 -328.669678 C 1552.020733 -328.389608 1545.564689 -326.912873 1539.006975 -325.537982 C 1522.333097 -322.075294 1508.429726 -312.578363 1495.79723 -301.579237 C 1474.878631 -283.349203 1459.729803 -260.739887 1448.317347 -235.635399 C 1442.09006 -221.962873 1437.641998 -207.577441 1435.888191 -192.65733 C 1434.388558 -180.028703 1434.337723 -167.425537 1436.549046 -154.618684 C 1441.327535 -126.509804 1454.671721 -103.162121 1474.319446 -83.226204 C 1501.89743 -55.270091 1533.516795 -32.635314 1568.745446 -15.169108 C 1578.200755 -10.484295 1588.215248 -7.836357 1598.738092 -7.709053 C 1612.819385 -7.556287 1624.130171 -14.150671 1634.220917 -23.189305 C 1648.556385 -35.996158 1659.104647 -51.781942 1668.661625 -68.204249 C 1677.481497 -83.353509 1685.716766 -98.833761 1693.240345 -114.670467 C 1702.822741 -134.860993 1711.591777 -155.382512 1715.251897 -177.660835 C 1717.361549 -190.620455 1717.641141 -203.529152 1715.861917 -216.692458 C 1711.185097 -251.3448 1691.05444 -275.558155 1664.289816 -295.697759 C 1647.285511 -308.504613 1628.349476 -317.466864 1608.167983 -323.450185 C 1592.536223 -328.109537 1576.167355 -329.611733 1559.747652 -328.669678 " stroke="#000000" stroke-width="0.5" stroke-opacity="0.25" stroke-miterlimit="4"/><path stroke-linecap="round" transform="matrix(0.153684, 0, 0, 0.153421, -63.293425, 86.436639)" fill="none" stroke-linejoin="round" d="M 1574.743975 -265.653849 C 1565.746181 -265.271934 1559.493477 -264.304419 1552.249491 -261.63102 C 1538.44779 -256.538832 1526.959081 -248.034877 1517.275015 -237.137594 C 1506.879259 -225.4001 1499.228592 -212.185872 1495.670143 -196.680159 C 1491.094994 -176.642398 1493.585908 -157.648536 1504.337509 -140.207791 C 1516.842918 -119.940882 1534.533495 -106.191973 1557.714252 -99.59759 C 1578.96328 -93.563346 1598.305995 -98.095394 1616.199912 -109.756505 C 1636.305152 -122.843429 1648.658055 -141.913674 1655.164935 -164.675755 C 1665.281098 -200.041003 1650.869378 -234.413274 1618.360399 -256.386066 C 1607.862973 -263.464208 1587.198548 -266.544981 1574.235625 -265.628388 " stroke="#000000" stroke-width="0.5" stroke-opacity="0.25" stroke-miterlimit="4"/><path stroke-linecap="round" transform="matrix(0.153684, 0, 0, 0.153421, -63.293425, 86.436639)" fill="none" stroke-linejoin="round" d="M 1638.745232 61.34102 C 1626.621086 64.956474 1619.427934 72.823905 1616.63201 85.325227 C 1613.912338 97.57194 1616.682845 108.494683 1624.384346 117.737005 C 1633.610897 128.787054 1645.607956 135.254133 1660.197599 137.520156 C 1671.76256 139.327883 1682.539579 138.15668 1691.613625 131.180382 C 1703.636101 121.912599 1707.829988 104.191784 1695.222909 88.355079 C 1683.861288 74.096952 1669.093723 65.032857 1651.403145 61.137333 C 1647.565103 60.322583 1644.159159 60.093434 1638.618144 61.366481 " stroke="#000000" stroke-width="0.5" stroke-opacity="0.25" stroke-miterlimit="4"/><path stroke-linecap="round" transform="matrix(0.153684, 0, 0, 0.153421, -63.293425, 86.436639)" fill="none" stroke-linejoin="round" d="M 1243.274401 7.338364 C 1224.007938 11.794028 1216.891039 21.978405 1217.577312 33.843204 C 1218.466924 49.501682 1226.092173 61.748395 1235.877909 72.722061 C 1248.891668 87.336641 1264.828438 98.081158 1283.764473 103.784409 C 1291.059295 105.999511 1298.532039 107.450785 1306.23354 107.348941 C 1317.086811 107.170714 1327.228392 101.263776 1329.617637 92.810744 C 1331.651037 85.605297 1331.244357 78.145241 1329.261792 70.837951 C 1322.754913 47.108354 1308.699037 29.031086 1287.119583 17.319053 C 1277.257594 11.921333 1265.692633 7.974887 1263.989661 7.567512 C 1261.625833 7.007372 1252.62804 5.326949 1243.299818 7.312903 " stroke="#000000" stroke-width="0.5" stroke-opacity="0.25" stroke-miterlimit="4"/><path fill="#008590" d="M 140.089844 64.207031 L 132.304688 52.53125 L 124.070312 46.09375 L 119.277344 55.824219 L 108.945312 43.246094 L 105.203125 47.738281 L 102.058594 43.695312 L 100.5625 38.007812 L 80.050781 71.394531 L 151.917969 71.394531 Z M 108.347656 54.777344 L 107.449219 63.160156 L 99.8125 69.597656 L 105.503906 61.960938 L 91.28125 69.597656 L 92.925781 64.507812 L 84.992188 69.597656 L 94.722656 59.117188 L 91.128906 59.417969 L 95.472656 53.878906 L 97.867188 45.195312 L 100.113281 43.847656 L 101.160156 46.242188 L 102.808594 46.242188 L 105.355469 50.136719 L 109.246094 45.195312 L 106.402344 53.878906 Z M 112.390625 67.652344 L 109.246094 64.808594 L 112.242188 64.808594 L 113.140625 66.304688 L 117.332031 69 Z M 120.925781 65.257812 L 120.773438 69.75 L 115.984375 59.269531 L 114.9375 61.0625 L 110.445312 53.429688 L 109.695312 46.242188 L 115.835938 54.925781 L 118.078125 56.871094 L 123.46875 62.261719 L 124.070312 67.800781 Z M 135.597656 66.605469 L 134.101562 69.449219 L 131.554688 63.460938 L 131.554688 66.304688 L 130.207031 62.261719 L 126.464844 61.664062 L 125.117188 58.820312 L 121.074219 56.574219 L 124.070312 48.1875 L 129.308594 51.480469 L 129.308594 54.777344 L 133.652344 58.519531 L 138.589844 66.003906 L 144.132812 69 L 139.191406 68.851562 Z M 135.597656 66.605469 " fill-opacity="1" fill-rule="nonzero"/><g transform="matrix(1, 0, 0, 1, 71, 65)"><g clip-path="url(#a46559bf09)"><g fill="#000000" fill-opacity="1"><g transform="translate(0.604828, 23.002999)"><g><path d="M 17.296875 -15.5 L 17.296875 0 L 15.40625 0 L 15.40625 -11.21875 L 9.578125 -2.0625 L 3.765625 -11.21875 L 3.765625 0 L 1.875 0 L 1.875 -15.5 L 2.859375 -15.5 L 9.578125 -5.203125 L 16.3125 -15.5 Z M 17.296875 -15.5 "/></g></g></g><g fill="#000000" fill-opacity="1"><g transform="translate(21.085235, 23.002999)"><g><path d="M 12.09375 -3.890625 L 4.109375 -3.890625 L 2.390625 0 L 0.421875 0 L 7.578125 -15.5 L 8.625 -15.5 L 15.8125 0 L 13.828125 0 Z M 4.796875 -5.4375 L 11.40625 -5.4375 L 8.09375 -12.921875 Z M 4.796875 -5.4375 "/></g></g></g><g fill="#000000" fill-opacity="1"><g transform="translate(38.599169, 23.002999)"><g><path d="M 15.0625 -7.734375 C 15.0625 -6.710938 14.875 -5.734375 14.5 -4.796875 C 14.125 -3.867188 13.601562 -3.046875 12.9375 -2.328125 C 12.269531 -1.609375 11.492188 -1.039062 10.609375 -0.625 C 9.722656 -0.207031 8.773438 0 7.765625 0 L 1.875 0 L 1.875 -15.5 L 7.25 -15.5 C 8.332031 -15.5 9.34375 -15.296875 10.28125 -14.890625 C 11.226562 -14.492188 12.054688 -13.9375 12.765625 -13.21875 C 13.484375 -12.507812 14.046875 -11.6875 14.453125 -10.75 C 14.859375 -9.8125 15.0625 -8.804688 15.0625 -7.734375 Z M 3.6875 -1.6875 L 7.609375 -1.6875 C 8.367188 -1.6875 9.082031 -1.847656 9.75 -2.171875 C 10.425781 -2.492188 11.019531 -2.9375 11.53125 -3.5 C 12.050781 -4.070312 12.457031 -4.71875 12.75 -5.4375 C 13.039062 -6.164062 13.1875 -6.929688 13.1875 -7.734375 C 13.1875 -8.566406 13.03125 -9.347656 12.71875 -10.078125 C 12.414062 -10.816406 11.992188 -11.460938 11.453125 -12.015625 C 10.910156 -12.578125 10.28125 -13.015625 9.5625 -13.328125 C 8.84375 -13.648438 8.070312 -13.8125 7.25 -13.8125 L 3.6875 -13.8125 Z M 3.6875 -1.6875 "/></g></g></g><g fill="#000000" fill-opacity="1"><g transform="translate(56.113104, 23.002999)"><g><path d="M 12.09375 0 L 8.578125 -4.796875 C 8.410156 -4.773438 8.238281 -4.757812 8.0625 -4.75 C 7.882812 -4.75 7.710938 -4.75 7.546875 -4.75 L 3.765625 -4.75 L 3.765625 0 L 1.875 0 L 1.875 -15.5 L 8.21875 -15.5 C 9.644531 -15.5 10.769531 -15.253906 11.59375 -14.765625 C 12.425781 -14.273438 13.019531 -13.628906 13.375 -12.828125 C 13.738281 -12.023438 13.921875 -11.171875 13.921875 -10.265625 C 13.921875 -8.890625 13.613281 -7.78125 13 -6.9375 C 12.394531 -6.09375 11.550781 -5.503906 10.46875 -5.171875 L 14.375 0 Z M 3.765625 -6.3125 L 7.46875 -6.3125 C 8.875 -6.3125 9.972656 -6.628906 10.765625 -7.265625 C 11.554688 -7.898438 11.953125 -8.863281 11.953125 -10.15625 C 11.953125 -10.800781 11.820312 -11.410156 11.5625 -11.984375 C 11.3125 -12.554688 10.894531 -13.015625 10.3125 -13.359375 C 9.738281 -13.710938 8.960938 -13.890625 7.984375 -13.890625 L 3.765625 -13.890625 Z M 3.765625 -6.3125 "/></g></g></g><g fill="#000000" fill-opacity="1"><g transform="translate(72.176656, 23.002999)"><g><path d="M 12.09375 -3.890625 L 4.109375 -3.890625 L 2.390625 0 L 0.421875 0 L 7.578125 -15.5 L 8.625 -15.5 L 15.8125 0 L 13.828125 0 Z M 4.796875 -5.4375 L 11.40625 -5.4375 L 8.09375 -12.921875 Z M 4.796875 -5.4375 "/></g></g></g></g></g><g transform="matrix(1, 0, 0, 1, 43, 88)"><g clip-path="url(#4a45fea47e)"><g fill="#008590" fill-opacity="1"><g transform="translate(0.184034, 14.098285)"><g><path d="M 9.0625 -9.421875 L 9.0625 0 L 7.1875 0 L 7.1875 -3.203125 L 2.828125 -3.203125 L 2.828125 0 L 0.96875 0 L 0.96875 -9.421875 L 2.828125 -9.421875 L 2.828125 -4.84375 L 7.1875 -4.84375 L 7.1875 -9.421875 Z M 9.0625 -9.421875 "/></g></g></g><g fill="#008590" fill-opacity="1"><g transform="translate(10.080487, 14.098285)"><g><path d="M 7.234375 -1.90625 L 3.015625 -1.90625 L 2.1875 0 L 0.15625 0 L 4.65625 -9.421875 L 5.609375 -9.421875 L 10.109375 0 L 8.09375 0 Z M 3.703125 -3.5 L 6.546875 -3.5 L 5.125 -6.625 Z M 3.703125 -3.5 "/></g></g></g><g fill="#008590" fill-opacity="1"><g transform="translate(20.217665, 14.098285)"><g><path d="M 6.828125 0 L 5 -2.4375 C 4.945312 -2.425781 4.890625 -2.421875 4.828125 -2.421875 C 4.765625 -2.421875 4.703125 -2.421875 4.640625 -2.421875 L 2.890625 -2.421875 L 2.890625 0 L 0.96875 0 L 0.96875 -9.421875 L 5.140625 -9.421875 C 5.828125 -9.421875 6.40625 -9.328125 6.875 -9.140625 C 7.34375 -8.960938 7.71875 -8.710938 8 -8.390625 C 8.289062 -8.078125 8.5 -7.71875 8.625 -7.3125 C 8.757812 -6.90625 8.828125 -6.476562 8.828125 -6.03125 C 8.828125 -5.21875 8.660156 -4.539062 8.328125 -4 C 8.003906 -3.46875 7.535156 -3.070312 6.921875 -2.8125 L 9.109375 0 Z M 2.890625 -4 L 4.578125 -4 C 5.335938 -4 5.898438 -4.175781 6.265625 -4.53125 C 6.640625 -4.882812 6.828125 -5.335938 6.828125 -5.890625 C 6.828125 -6.210938 6.765625 -6.515625 6.640625 -6.796875 C 6.515625 -7.085938 6.304688 -7.320312 6.015625 -7.5 C 5.722656 -7.675781 5.328125 -7.765625 4.828125 -7.765625 L 2.890625 -7.765625 Z M 2.890625 -4 "/></g></g></g><g fill="#008590" fill-opacity="1"><g transform="translate(29.485558, 14.098285)"><g><path d="M 2 -11.984375 C 2.238281 -11.984375 2.441406 -11.894531 2.609375 -11.71875 C 2.785156 -11.550781 2.875 -11.34375 2.875 -11.09375 C 2.875 -10.84375 2.785156 -10.625 2.609375 -10.4375 C 2.441406 -10.257812 2.238281 -10.171875 2 -10.171875 C 1.75 -10.171875 1.535156 -10.257812 1.359375 -10.4375 C 1.191406 -10.625 1.109375 -10.84375 1.109375 -11.09375 C 1.109375 -11.34375 1.191406 -11.550781 1.359375 -11.71875 C 1.535156 -11.894531 1.75 -11.984375 2 -11.984375 Z M 2.9375 0 L 1.015625 0 L 1.015625 -9.421875 L 2.9375 -9.421875 Z M 2.9375 0 "/></g></g></g><g fill="#008590" fill-opacity="1"><g transform="translate(33.297014, 14.098285)"><g><path d="M 8.40625 -7.765625 L 5.390625 -7.765625 L 5.390625 0 L 3.46875 0 L 3.46875 -7.765625 L 0.46875 -7.765625 L 0.46875 -9.421875 L 8.40625 -9.421875 Z M 8.40625 -7.765625 "/></g></g></g><g fill="#008590" fill-opacity="1"><g transform="translate(40.786094, 14.098285)"><g><path d="M 7.234375 -1.90625 L 3.015625 -1.90625 L 2.1875 0 L 0.15625 0 L 4.65625 -9.421875 L 5.609375 -9.421875 L 10.109375 0 L 8.09375 0 Z M 3.703125 -3.5 L 6.546875 -3.5 L 5.125 -6.625 Z M 3.703125 -3.5 "/></g></g></g><g fill="#008590" fill-opacity="1"><g transform="translate(50.923702, 14.098285)"><g/></g></g><g fill="#008590" fill-opacity="1"><g transform="translate(52.394777, 14.098285)"><g/></g></g><g fill="#008590" fill-opacity="1"><g transform="translate(53.866522, 14.098285)"><g><path d="M 10.53125 -9.421875 L 10.53125 0 L 9.375 0 L 9.375 -6.828125 L 5.828125 -1.25 L 2.28125 -6.828125 L 2.28125 0 L 1.140625 0 L 1.140625 -9.421875 L 1.734375 -9.421875 L 5.828125 -3.171875 L 9.921875 -9.421875 Z M 10.53125 -9.421875 "/></g></g></g><g fill="#008590" fill-opacity="1"><g transform="translate(65.394556, 14.098285)"><g><path d="M 3.921875 -11.453125 C 4.085938 -11.453125 4.226562 -11.390625 4.34375 -11.265625 C 4.457031 -11.148438 4.515625 -11.007812 4.515625 -10.84375 C 4.515625 -10.675781 4.457031 -10.535156 4.34375 -10.421875 C 4.226562 -10.304688 4.085938 -10.25 3.921875 -10.25 C 3.753906 -10.25 3.609375 -10.304688 3.484375 -10.421875 C 3.367188 -10.535156 3.3125 -10.675781 3.3125 -10.84375 C 3.3125 -11.007812 3.367188 -11.148438 3.484375 -11.265625 C 3.609375 -11.390625 3.753906 -11.453125 3.921875 -11.453125 Z M 6.234375 -11.453125 C 6.390625 -11.453125 6.523438 -11.390625 6.640625 -11.265625 C 6.765625 -11.148438 6.828125 -11.007812 6.828125 -10.84375 C 6.828125 -10.675781 6.765625 -10.535156 6.640625 -10.421875 C 6.523438 -10.304688 6.390625 -10.25 6.234375 -10.25 C 6.066406 -10.25 5.921875 -10.304688 5.796875 -10.421875 C 5.679688 -10.535156 5.625 -10.675781 5.625 -10.84375 C 5.625 -11.007812 5.679688 -11.148438 5.796875 -11.265625 C 5.921875 -11.390625 6.066406 -11.453125 6.234375 -11.453125 Z M 9.015625 -9.421875 L 9.015625 -3.78125 C 9.015625 -3.070312 8.863281 -2.425781 8.5625 -1.84375 C 8.257812 -1.257812 7.8125 -0.789062 7.21875 -0.4375 C 6.632812 -0.09375 5.910156 0.078125 5.046875 0.078125 C 4.191406 0.078125 3.46875 -0.09375 2.875 -0.4375 C 2.289062 -0.78125 1.847656 -1.242188 1.546875 -1.828125 C 1.242188 -2.421875 1.09375 -3.070312 1.09375 -3.78125 L 1.09375 -9.421875 L 2.21875 -9.421875 L 2.21875 -4.03125 C 2.21875 -3.101562 2.457031 -2.359375 2.9375 -1.796875 C 3.425781 -1.242188 4.128906 -0.96875 5.046875 -0.96875 C 5.972656 -0.96875 6.679688 -1.242188 7.171875 -1.796875 C 7.660156 -2.359375 7.90625 -3.101562 7.90625 -4.03125 L 7.90625 -9.421875 Z M 9.015625 -9.421875 "/></g></g></g><g fill="#008590" fill-opacity="1"><g transform="translate(75.357876, 14.098285)"><g><path d="M 8.71875 -9.421875 L 8.71875 0 L 7.59375 0 L 7.59375 -3.625 L 2.25 -3.625 L 2.25 0 L 1.140625 0 L 1.140625 -9.421875 L 2.25 -9.421875 L 2.25 -4.59375 L 7.59375 -4.59375 L 7.59375 -9.421875 Z M 8.71875 -9.421875 "/></g></g></g><g fill="#008590" fill-opacity="1"><g transform="translate(85.080473, 14.098285)"><g><path d="M 7.953125 -0.96875 L 7.953125 0 L 1.140625 0 L 1.140625 -9.421875 L 7.671875 -9.421875 L 7.671875 -8.453125 L 2.25 -8.453125 L 2.25 -5.0625 L 6.84375 -5.0625 L 6.84375 -4.09375 L 2.25 -4.09375 L 2.25 -0.96875 Z M 7.953125 -0.96875 "/></g></g></g><g fill="#008590" fill-opacity="1"><g transform="translate(93.559324, 14.098285)"><g><path d="M 9.203125 -9.421875 L 9.203125 0 L 8.59375 0 L 2.28125 -7.28125 L 2.28125 0 L 1.140625 0 L 1.140625 -9.421875 L 1.734375 -9.421875 L 8.0625 -2.15625 L 8.0625 -9.421875 Z M 9.203125 -9.421875 "/></g></g></g><g fill="#008590" fill-opacity="1"><g transform="translate(103.763369, 14.098285)"><g><path d="M 9.15625 -4.703125 C 9.15625 -4.078125 9.039062 -3.484375 8.8125 -2.921875 C 8.59375 -2.359375 8.28125 -1.859375 7.875 -1.421875 C 7.46875 -0.984375 6.992188 -0.632812 6.453125 -0.375 C 5.910156 -0.125 5.332031 0 4.71875 0 L 1.140625 0 L 1.140625 -9.421875 L 4.40625 -9.421875 C 5.070312 -9.421875 5.6875 -9.296875 6.25 -9.046875 C 6.820312 -8.804688 7.328125 -8.46875 7.765625 -8.03125 C 8.203125 -7.601562 8.539062 -7.101562 8.78125 -6.53125 C 9.03125 -5.96875 9.15625 -5.359375 9.15625 -4.703125 Z M 2.25 -1.03125 L 4.625 -1.03125 C 5.09375 -1.03125 5.53125 -1.128906 5.9375 -1.328125 C 6.34375 -1.523438 6.703125 -1.789062 7.015625 -2.125 C 7.328125 -2.46875 7.570312 -2.859375 7.75 -3.296875 C 7.9375 -3.742188 8.03125 -4.210938 8.03125 -4.703125 C 8.03125 -5.210938 7.9375 -5.691406 7.75 -6.140625 C 7.5625 -6.585938 7.300781 -6.976562 6.96875 -7.3125 C 6.632812 -7.65625 6.25 -7.921875 5.8125 -8.109375 C 5.375 -8.304688 4.90625 -8.40625 4.40625 -8.40625 L 2.25 -8.40625 Z M 2.25 -1.03125 "/></g></g></g><g fill="#008590" fill-opacity="1"><g transform="translate(113.485962, 14.098285)"><g><path d="M 1.734375 -11.625 C 1.910156 -11.625 2.054688 -11.566406 2.171875 -11.453125 C 2.285156 -11.335938 2.34375 -11.191406 2.34375 -11.015625 C 2.34375 -10.847656 2.285156 -10.707031 2.171875 -10.59375 C 2.054688 -10.476562 1.910156 -10.421875 1.734375 -10.421875 C 1.566406 -10.421875 1.425781 -10.476562 1.3125 -10.59375 C 1.195312 -10.707031 1.140625 -10.847656 1.140625 -11.015625 C 1.140625 -11.191406 1.195312 -11.335938 1.3125 -11.453125 C 1.425781 -11.566406 1.566406 -11.625 1.734375 -11.625 Z M 2.3125 0 L 1.15625 0 L 1.15625 -9.421875 L 2.3125 -9.421875 Z M 2.3125 0 "/></g></g></g><g fill="#008590" fill-opacity="1"><g transform="translate(116.815973, 14.098285)"><g><path d="M 4.546875 -5.234375 C 5.179688 -5.085938 5.75 -4.910156 6.25 -4.703125 C 6.757812 -4.503906 7.160156 -4.234375 7.453125 -3.890625 C 7.742188 -3.554688 7.890625 -3.113281 7.890625 -2.5625 C 7.890625 -2 7.742188 -1.515625 7.453125 -1.109375 C 7.160156 -0.710938 6.753906 -0.410156 6.234375 -0.203125 C 5.710938 0.00390625 5.101562 0.109375 4.40625 0.109375 C 4.019531 0.109375 3.675781 0.0976562 3.375 0.078125 C 3.070312 0.0546875 2.785156 0.015625 2.515625 -0.046875 C 2.242188 -0.109375 1.960938 -0.195312 1.671875 -0.3125 C 1.378906 -0.425781 1.046875 -0.578125 0.671875 -0.765625 L 1.09375 -1.640625 C 1.539062 -1.429688 1.929688 -1.269531 2.265625 -1.15625 C 2.609375 -1.039062 2.945312 -0.960938 3.28125 -0.921875 C 3.625 -0.890625 4.007812 -0.875 4.4375 -0.875 C 5.132812 -0.875 5.691406 -1.015625 6.109375 -1.296875 C 6.523438 -1.578125 6.734375 -1.972656 6.734375 -2.484375 C 6.734375 -2.816406 6.625 -3.085938 6.40625 -3.296875 C 6.195312 -3.515625 5.90625 -3.691406 5.53125 -3.828125 C 5.164062 -3.972656 4.738281 -4.101562 4.25 -4.21875 C 3.769531 -4.332031 3.320312 -4.453125 2.90625 -4.578125 C 2.488281 -4.710938 2.117188 -4.875 1.796875 -5.0625 C 1.472656 -5.257812 1.21875 -5.503906 1.03125 -5.796875 C 0.851562 -6.097656 0.765625 -6.46875 0.765625 -6.90625 C 0.765625 -7.40625 0.894531 -7.851562 1.15625 -8.25 C 1.425781 -8.644531 1.804688 -8.953125 2.296875 -9.171875 C 2.796875 -9.398438 3.390625 -9.515625 4.078125 -9.515625 C 4.703125 -9.515625 5.320312 -9.441406 5.9375 -9.296875 C 6.550781 -9.148438 7.078125 -8.976562 7.515625 -8.78125 L 7.03125 -7.859375 C 6.769531 -7.992188 6.46875 -8.109375 6.125 -8.203125 C 5.78125 -8.304688 5.425781 -8.382812 5.0625 -8.4375 C 4.707031 -8.488281 4.375 -8.515625 4.0625 -8.515625 C 3.382812 -8.515625 2.851562 -8.367188 2.46875 -8.078125 C 2.09375 -7.796875 1.90625 -7.425781 1.90625 -6.96875 C 1.90625 -6.632812 2.015625 -6.363281 2.234375 -6.15625 C 2.460938 -5.945312 2.773438 -5.769531 3.171875 -5.625 C 3.566406 -5.488281 4.023438 -5.359375 4.546875 -5.234375 Z M 4.546875 -5.234375 "/></g></g></g><g fill="#008590" fill-opacity="1"><g transform="translate(125.241322, 14.098285)"><g><path d="M 7.515625 -0.953125 L 7.515625 0 L 1.140625 0 L 1.140625 -9.421875 L 2.28125 -9.421875 L 2.28125 -0.953125 Z M 7.515625 -0.953125 "/></g></g></g><g fill="#008590" fill-opacity="1"><g transform="translate(133.118365, 14.098285)"><g><path d="M 1.734375 -11.625 C 1.910156 -11.625 2.054688 -11.566406 2.171875 -11.453125 C 2.285156 -11.335938 2.34375 -11.191406 2.34375 -11.015625 C 2.34375 -10.847656 2.285156 -10.707031 2.171875 -10.59375 C 2.054688 -10.476562 1.910156 -10.421875 1.734375 -10.421875 C 1.566406 -10.421875 1.425781 -10.476562 1.3125 -10.59375 C 1.195312 -10.707031 1.140625 -10.847656 1.140625 -11.015625 C 1.140625 -11.191406 1.195312 -11.335938 1.3125 -11.453125 C 1.425781 -11.566406 1.566406 -11.625 1.734375 -11.625 Z M 2.3125 0 L 1.15625 0 L 1.15625 -9.421875 L 2.3125 -9.421875 Z M 2.3125 0 "/></g></g></g><g clip-path="url(#cd42786d47)"><g fill="#008590" fill-opacity="1"><g transform="translate(136.448369, 14.098285)"><g><path d="M 8.90625 0 L 7.390625 0 L 3.859375 -3.984375 L 2.25 -2.234375 L 2.25 0 L 1.140625 0 L 1.140625 -9.421875 L 2.25 -9.421875 L 2.25 -3.828125 L 7.390625 -9.421875 L 8.78125 -9.421875 L 4.609375 -4.828125 Z M 8.90625 0 "/></g></g></g></g></g></g></g></g></g></svg>