<svg xmlns="http://www.w3.org/2000/svg" xmlns:xlink="http://www.w3.org/1999/xlink" width="1920" zoomAndPan="magnify" viewBox="0 0 1440 809.999993" height="1080" preserveAspectRatio="xMidYMid meet" version="1.0"><defs><clipPath id="6450d73edd"><path d="M 447.496094 200.601562 L 991.246094 200.601562 L 991.246094 607.851562 L 447.496094 607.851562 Z M 447.496094 200.601562 " clip-rule="nonzero"/></clipPath></defs><g clip-path="url(#6450d73edd)"><path fill="#008590" d="M 948.679688 607.820312 L 489.640625 607.820312 C 486.15625 607.367188 483.621094 606.976562 482.03125 606.644531 C 467.324219 603.550781 455.121094 592.03125 450.222656 578.28125 C 448.753906 574.171875 448.207031 569.867188 447.496094 565.503906 L 447.496094 242.261719 C 448.261719 240.183594 448.207031 237.847656 448.632812 236.082031 C 449.21875 233.664062 449.8125 230.964844 450.773438 228.722656 C 456.972656 214.21875 467.792969 205.257812 483.230469 201.839844 C 484.652344 201.523438 486.074219 201.332031 487.5 201.269531 C 489.417969 201.191406 491.289062 200.742188 493.230469 200.742188 C 642.78125 200.671875 793.925781 200.671875 946.667969 200.742188 C 947.835938 200.742188 948.996094 200.824219 950.140625 200.992188 C 951.285156 201.167969 952.433594 201.332031 953.589844 201.484375 C 957.589844 202.007812 961.125 202.960938 964.191406 204.332031 C 978.8125 210.851562 989.601562 224.585938 990.675781 240.941406 C 990.847656 243.59375 991.117188 246.175781 991.101562 248.804688 C 990.484375 329.972656 990.824219 411.203125 990.832031 498.101562 C 990.832031 516.714844 991.320312 536.296875 991.0625 555.90625 C 990.980469 561.945312 990.84375 566.035156 990.644531 568.171875 C 989.433594 581.015625 983.371094 591.484375 972.457031 599.578125 C 967.257812 603.429688 961.449219 605.878906 955.027344 606.921875 C 952.917969 607.261719 950.800781 607.5625 948.679688 607.820312 Z M 711.214844 445.453125 C 718.125 448.066406 726.230469 446.367188 731.589844 441.378906 C 778.964844 397.265625 826.070312 353.601562 872.90625 310.386719 C 899.957031 285.429688 926.777344 260.597656 953.363281 235.890625 C 953.773438 235.511719 953.785156 235.117188 953.402344 234.707031 C 952.796875 234.070312 951.898438 233.75 950.703125 233.75 C 795.574219 233.699219 642.332031 233.671875 490.96875 233.671875 C 488 233.671875 486.300781 234.359375 484.296875 236.277344 C 484.007812 236.554688 484.011719 236.828125 484.3125 237.097656 C 485.933594 238.519531 487.554688 239.96875 489.175781 241.449219 C 507.230469 257.945312 527.480469 276.664062 549.921875 297.601562 C 598.105469 342.550781 644.863281 386.007812 690.203125 427.96875 C 694.230469 431.695312 698.363281 435.511719 702.605469 439.421875 C 706.003906 442.558594 708.875 444.570312 711.214844 445.453125 Z M 957.277344 278.996094 C 957.277344 278.886719 957.222656 278.789062 957.113281 278.703125 C 957 278.613281 956.886719 278.609375 956.773438 278.695312 C 953.039062 281.578125 950.039062 284.964844 946.488281 288.269531 C 908.007812 324.019531 868.535156 360.84375 828.0625 398.746094 C 827.679688 399.117188 827.269531 399.441406 826.839844 399.726562 C 826.222656 400.140625 826.199219 400.589844 826.769531 401.074219 C 828.113281 402.21875 829.308594 403.277344 830.34375 404.25 C 852.222656 424.75 875.777344 446.945312 900.996094 470.828125 C 905.875 475.445312 910.160156 479.566406 913.847656 483.191406 C 917.859375 487.128906 922.121094 490.855469 926.121094 494.785156 C 929.253906 497.859375 932.316406 500.757812 935.308594 503.476562 C 940.296875 507.992188 944.859375 512.75 949.875 517.28125 C 952.246094 519.425781 954.546875 521.652344 956.773438 523.96875 C 956.863281 524.066406 956.972656 524.105469 957.105469 524.078125 C 957.308594 524.042969 957.410156 523.945312 957.410156 523.792969 C 957.417969 442.328125 957.410156 360.894531 957.394531 279.492188 C 957.394531 279.386719 957.371094 279.289062 957.324219 279.195312 C 957.292969 279.136719 957.277344 279.070312 957.277344 278.996094 Z M 481.875 524.085938 C 485.242188 520.722656 488.886719 517.175781 492.8125 513.4375 C 528.011719 479.960938 562.777344 446.761719 597.101562 413.847656 C 601.007812 410.101562 605.113281 406.222656 609.421875 402.210938 C 610.265625 401.433594 610.261719 400.660156 609.40625 399.890625 C 607.75 398.386719 606.175781 396.9375 604.6875 395.542969 C 563.214844 356.707031 524.167969 320.328125 487.542969 286.410156 C 485.347656 284.378906 483.246094 282.417969 481.242188 280.535156 C 481.152344 280.453125 481.109375 280.453125 481.109375 280.535156 L 480.949219 523.699219 C 480.949219 524.574219 481.257812 524.703125 481.875 524.085938 Z M 721.003906 480.65625 C 704.515625 481.40625 691.214844 475.433594 679.152344 464.074219 C 668.175781 453.742188 654.628906 441.054688 638.511719 426.003906 C 637.832031 425.371094 637.101562 424.757812 636.316406 424.164062 C 636.085938 423.992188 635.824219 423.914062 635.539062 423.929688 C 635.25 423.945312 635.003906 424.046875 634.792969 424.242188 C 632.765625 426.082031 630.847656 428.148438 628.878906 430.019531 C 586.839844 470.175781 545.199219 510.050781 503.960938 549.636719 C 498.75 554.640625 494.105469 559.007812 490.027344 562.734375 C 487.726562 564.835938 485.558594 566.914062 483.523438 568.960938 C 482.976562 569.511719 482.96875 570.074219 483.5 570.640625 C 486.757812 574.113281 489.632812 573.878906 494.898438 573.878906 C 645.644531 573.878906 796.394531 573.878906 947.140625 573.878906 C 950.859375 573.878906 952.921875 573.507812 954.902344 570.5 C 955.359375 569.800781 955.285156 569.164062 954.679688 568.597656 C 906.105469 522.640625 857.542969 476.636719 809 430.582031 C 806.296875 428.011719 804.003906 425.699219 802.125 423.636719 C 802.003906 423.503906 801.867188 423.402344 801.707031 423.328125 C 801.546875 423.253906 801.378906 423.210938 801.203125 423.207031 C 801.027344 423.199219 800.855469 423.222656 800.6875 423.285156 C 800.523438 423.347656 800.375 423.4375 800.246094 423.554688 C 786.558594 436.210938 772.972656 449.042969 759.40625 461.800781 C 754.203125 466.695312 750.171875 470.0625 747.320312 471.902344 C 738.921875 477.324219 730.148438 480.242188 721.003906 480.65625 Z M 721.003906 480.65625 " fill-opacity="1" fill-rule="nonzero"/></g></svg>