<svg xmlns="http://www.w3.org/2000/svg" xmlns:xlink="http://www.w3.org/1999/xlink" width="1920" zoomAndPan="magnify" viewBox="0 0 1440 809.999993" height="1080" preserveAspectRatio="xMidYMid meet" version="1.0"><path fill="#008590" d="M 803.609375 196.769531 L 634.996094 196.769531 C 624.125 196.769531 614.25 201.210938 607.097656 208.359375 C 599.945312 215.515625 595.507812 225.390625 595.507812 236.257812 L 595.507812 572.417969 C 595.507812 583.285156 599.945312 593.160156 607.097656 600.3125 C 614.25 607.46875 624.125 611.90625 634.996094 611.90625 L 803.609375 611.90625 C 814.480469 611.90625 824.355469 607.46875 831.507812 600.3125 C 838.660156 593.160156 843.101562 583.285156 843.101562 572.417969 L 843.101562 236.257812 C 843.101562 225.390625 838.660156 215.515625 831.507812 208.363281 C 824.355469 201.210938 814.480469 196.769531 803.609375 196.769531 Z M 703.175781 573.617188 L 735.429688 573.617188 C 740.835938 573.617188 745.257812 578.042969 745.257812 583.449219 C 745.257812 588.855469 740.835938 593.277344 735.429688 593.277344 L 703.175781 593.277344 C 697.769531 593.277344 693.347656 588.855469 693.347656 583.449219 C 693.347656 578.042969 697.769531 573.617188 703.175781 573.617188 Z M 679.695312 218.695312 C 683.28125 218.695312 686.183594 221.601562 686.183594 225.183594 C 686.183594 228.769531 683.28125 231.671875 679.695312 231.671875 C 676.113281 231.671875 673.207031 228.769531 673.207031 225.183594 C 673.207031 221.601562 676.113281 218.695312 679.695312 218.695312 Z M 758.914062 231.671875 C 762.496094 231.671875 765.402344 228.769531 765.402344 225.183594 C 765.402344 221.601562 762.496094 218.695312 758.914062 218.695312 L 699.398438 218.695312 C 695.816406 218.695312 692.910156 221.601562 692.910156 225.183594 C 692.910156 228.769531 695.816406 231.671875 699.398438 231.671875 Z M 614.976562 255.09375 L 823.632812 255.09375 L 823.632812 554.988281 L 614.976562 554.988281 L 614.976562 255.09375 " fill-opacity="1" fill-rule="evenodd"/></svg>